<svg width="1440" height="919" viewBox="0 0 1440 919" fill="none" xmlns="http://www.w3.org/2000/svg">
<rect x="-9.5" y="0.5" width="73" height="73" stroke="#EBEBEB" stroke-opacity="0.03"/>
<rect x="63.5" y="0.5" width="73" height="73" stroke="#EBEBEB" stroke-opacity="0.03"/>
<rect x="136.5" y="0.5" width="73" height="73" stroke="#EBEBEB" stroke-opacity="0.03"/>
<rect x="209.5" y="0.5" width="73" height="73" stroke="#EBEBEB" stroke-opacity="0.03"/>
<rect x="282.5" y="0.5" width="73" height="73" stroke="#EBEBEB" stroke-opacity="0.03"/>
<rect x="355.5" y="0.5" width="73" height="73" stroke="#EBEBEB" stroke-opacity="0.03"/>
<rect x="428.5" y="0.5" width="73" height="73" stroke="#EBEBEB" stroke-opacity="0.03"/>
<rect x="501.5" y="0.5" width="73" height="73" stroke="#EBEBEB" stroke-opacity="0.03"/>
<rect x="574.5" y="0.5" width="73" height="73" stroke="#EBEBEB" stroke-opacity="0.03"/>
<rect x="647.5" y="0.5" width="73" height="73" stroke="#EBEBEB" stroke-opacity="0.03"/>
<rect x="720.5" y="0.5" width="73" height="73" stroke="#EBEBEB" stroke-opacity="0.03"/>
<rect x="793.5" y="0.5" width="73" height="73" stroke="#EBEBEB" stroke-opacity="0.03"/>
<rect x="866.5" y="0.5" width="73" height="73" stroke="#EBEBEB" stroke-opacity="0.03"/>
<rect x="939.5" y="0.5" width="73" height="73" stroke="#EBEBEB" stroke-opacity="0.03"/>
<rect x="1012.5" y="0.5" width="73" height="73" stroke="#EBEBEB" stroke-opacity="0.03"/>
<rect x="1085.5" y="0.5" width="73" height="73" stroke="#EBEBEB" stroke-opacity="0.03"/>
<rect x="1158.5" y="0.5" width="73" height="73" stroke="#EBEBEB" stroke-opacity="0.03"/>
<rect x="1231.5" y="0.5" width="73" height="73" stroke="#EBEBEB" stroke-opacity="0.03"/>
<rect x="1304.5" y="0.5" width="73" height="73" stroke="#EBEBEB" stroke-opacity="0.03"/>
<rect x="1377.5" y="0.5" width="73" height="73" stroke="#EBEBEB" stroke-opacity="0.03"/>
<rect x="-9.5" y="73.5" width="73" height="73" stroke="#EBEBEB" stroke-opacity="0.03"/>
<rect x="63.5" y="73.5" width="73" height="73" stroke="#EBEBEB" stroke-opacity="0.03"/>
<rect x="136.5" y="73.5" width="73" height="73" stroke="#EBEBEB" stroke-opacity="0.03"/>
<rect x="209.5" y="73.5" width="73" height="73" stroke="#EBEBEB" stroke-opacity="0.03"/>
<rect x="282.5" y="73.5" width="73" height="73" stroke="#EBEBEB" stroke-opacity="0.03"/>
<rect x="355.5" y="73.5" width="73" height="73" stroke="#EBEBEB" stroke-opacity="0.03"/>
<rect x="428.5" y="73.5" width="73" height="73" stroke="#EBEBEB" stroke-opacity="0.03"/>
<rect x="501.5" y="73.5" width="73" height="73" stroke="#EBEBEB" stroke-opacity="0.03"/>
<rect x="574.5" y="73.5" width="73" height="73" stroke="#EBEBEB" stroke-opacity="0.03"/>
<rect x="647.5" y="73.5" width="73" height="73" stroke="#EBEBEB" stroke-opacity="0.03"/>
<rect x="720.5" y="73.5" width="73" height="73" stroke="#EBEBEB" stroke-opacity="0.03"/>
<rect x="793.5" y="73.5" width="73" height="73" stroke="#EBEBEB" stroke-opacity="0.03"/>
<rect x="866.5" y="73.5" width="73" height="73" stroke="#EBEBEB" stroke-opacity="0.03"/>
<rect x="939.5" y="73.5" width="73" height="73" stroke="#EBEBEB" stroke-opacity="0.03"/>
<rect x="1012.5" y="73.5" width="73" height="73" stroke="#EBEBEB" stroke-opacity="0.03"/>
<rect x="1085.5" y="73.5" width="73" height="73" stroke="#EBEBEB" stroke-opacity="0.03"/>
<rect x="1158.5" y="73.5" width="73" height="73" stroke="#EBEBEB" stroke-opacity="0.03"/>
<rect x="1231.5" y="73.5" width="73" height="73" stroke="#EBEBEB" stroke-opacity="0.03"/>
<rect x="1304.5" y="73.5" width="73" height="73" stroke="#EBEBEB" stroke-opacity="0.03"/>
<rect x="1377.5" y="73.5" width="73" height="73" stroke="#EBEBEB" stroke-opacity="0.03"/>
<rect x="-9.5" y="146.5" width="73" height="73" stroke="#EBEBEB" stroke-opacity="0.03"/>
<rect x="63.5" y="146.5" width="73" height="73" stroke="#EBEBEB" stroke-opacity="0.03"/>
<rect x="136" y="146" width="74" height="74" fill="#F7F7F7" fill-opacity="0.02"/>
<rect x="136.5" y="146.5" width="73" height="73" stroke="#EBEBEB" stroke-opacity="0.03"/>
<rect x="209" y="146" width="74" height="74" fill="#F7F7F7" fill-opacity="0.02"/>
<rect x="209.5" y="146.5" width="73" height="73" stroke="#EBEBEB" stroke-opacity="0.03"/>
<rect x="282" y="146" width="74" height="74" fill="#F7F7F7" fill-opacity="0.02"/>
<rect x="282.5" y="146.5" width="73" height="73" stroke="#EBEBEB" stroke-opacity="0.03"/>
<rect x="355.5" y="146.5" width="73" height="73" stroke="#EBEBEB" stroke-opacity="0.03"/>
<rect x="428.5" y="146.5" width="73" height="73" stroke="#EBEBEB" stroke-opacity="0.03"/>
<rect x="501" y="146" width="74" height="74" fill="#F2F2F2" fill-opacity="0.02"/>
<rect x="501.5" y="146.5" width="73" height="73" stroke="#EBEBEB" stroke-opacity="0.03"/>
<rect x="574.5" y="146.5" width="73" height="73" stroke="#EBEBEB" stroke-opacity="0.03"/>
<rect x="647" y="146" width="74" height="74" fill="#F2F2F2" fill-opacity="0.02"/>
<rect x="647.5" y="146.5" width="73" height="73" stroke="#EBEBEB" stroke-opacity="0.03"/>
<rect x="720.5" y="146.5" width="73" height="73" stroke="#EBEBEB" stroke-opacity="0.03"/>
<rect x="793" y="146" width="74" height="74" fill="#F2F2F2" fill-opacity="0.02"/>
<rect x="793.5" y="146.5" width="73" height="73" stroke="#EBEBEB" stroke-opacity="0.03"/>
<rect x="866.5" y="146.5" width="73" height="73" stroke="#EBEBEB" stroke-opacity="0.03"/>
<rect x="939.5" y="146.5" width="73" height="73" stroke="#EBEBEB" stroke-opacity="0.03"/>
<rect x="1012.5" y="146.5" width="73" height="73" stroke="#EBEBEB" stroke-opacity="0.03"/>
<rect x="1085.5" y="146.5" width="73" height="73" stroke="#EBEBEB" stroke-opacity="0.03"/>
<rect x="1158" y="146" width="74" height="74" fill="#F7F7F7" fill-opacity="0.02"/>
<rect x="1158.5" y="146.5" width="73" height="73" stroke="#EBEBEB" stroke-opacity="0.03"/>
<rect x="1231" y="146" width="74" height="74" fill="#F7F7F7" fill-opacity="0.02"/>
<rect x="1231.5" y="146.5" width="73" height="73" stroke="#EBEBEB" stroke-opacity="0.03"/>
<rect x="1304" y="146" width="74" height="74" fill="#F7F7F7" fill-opacity="0.02"/>
<rect x="1304.5" y="146.5" width="73" height="73" stroke="#EBEBEB" stroke-opacity="0.03"/>
<rect x="1377.5" y="146.5" width="73" height="73" stroke="#EBEBEB" stroke-opacity="0.03"/>
<rect x="-9.5" y="219.5" width="73" height="73" stroke="#EBEBEB" stroke-opacity="0.03"/>
<rect x="63.5" y="219.5" width="73" height="73" stroke="#EBEBEB" stroke-opacity="0.03"/>
<rect x="136" y="219" width="74" height="74" fill="#F7F7F7" fill-opacity="0.02"/>
<rect x="136.5" y="219.5" width="73" height="73" stroke="#EBEBEB" stroke-opacity="0.03"/>
<rect x="209.5" y="219.5" width="73" height="73" stroke="#EBEBEB" stroke-opacity="0.03"/>
<rect x="282.5" y="219.5" width="73" height="73" stroke="#EBEBEB" stroke-opacity="0.03"/>
<rect x="355.5" y="219.5" width="73" height="73" stroke="#EBEBEB" stroke-opacity="0.03"/>
<rect x="428.5" y="219.5" width="73" height="73" stroke="#EBEBEB" stroke-opacity="0.03"/>
<rect x="501.5" y="219.5" width="73" height="73" stroke="#EBEBEB" stroke-opacity="0.03"/>
<rect x="574.5" y="219.5" width="73" height="73" stroke="#EBEBEB" stroke-opacity="0.03"/>
<rect x="647.5" y="219.5" width="73" height="73" stroke="#EBEBEB" stroke-opacity="0.03"/>
<rect x="720.5" y="219.5" width="73" height="73" stroke="#EBEBEB" stroke-opacity="0.03"/>
<rect x="793.5" y="219.5" width="73" height="73" stroke="#EBEBEB" stroke-opacity="0.03"/>
<rect x="866.5" y="219.5" width="73" height="73" stroke="#EBEBEB" stroke-opacity="0.03"/>
<rect x="939.5" y="219.5" width="73" height="73" stroke="#EBEBEB" stroke-opacity="0.03"/>
<rect x="1012.5" y="219.5" width="73" height="73" stroke="#EBEBEB" stroke-opacity="0.03"/>
<rect x="1085.5" y="219.5" width="73" height="73" stroke="#EBEBEB" stroke-opacity="0.03"/>
<rect x="1158.5" y="219.5" width="73" height="73" stroke="#EBEBEB" stroke-opacity="0.03"/>
<rect x="1231.5" y="219.5" width="73" height="73" stroke="#EBEBEB" stroke-opacity="0.03"/>
<rect x="1304" y="219" width="74" height="74" fill="#F7F7F7" fill-opacity="0.02"/>
<rect x="1304.5" y="219.5" width="73" height="73" stroke="#EBEBEB" stroke-opacity="0.03"/>
<rect x="1377.5" y="219.5" width="73" height="73" stroke="#EBEBEB" stroke-opacity="0.03"/>
<rect x="-9.5" y="292.5" width="73" height="73" stroke="#EBEBEB" stroke-opacity="0.03"/>
<rect x="63.5" y="292.5" width="73" height="73" stroke="#EBEBEB" stroke-opacity="0.03"/>
<rect x="136.5" y="292.5" width="73" height="73" stroke="#EBEBEB" stroke-opacity="0.03"/>
<rect x="209.5" y="292.5" width="73" height="73" stroke="#EBEBEB" stroke-opacity="0.03"/>
<rect x="282.5" y="292.5" width="73" height="73" stroke="#EBEBEB" stroke-opacity="0.03"/>
<rect x="355.5" y="292.5" width="73" height="73" stroke="#EBEBEB" stroke-opacity="0.03"/>
<rect x="428.5" y="292.5" width="73" height="73" stroke="#EBEBEB" stroke-opacity="0.03"/>
<rect x="501.5" y="292.5" width="73" height="73" stroke="#EBEBEB" stroke-opacity="0.03"/>
<rect x="574.5" y="292.5" width="73" height="73" stroke="#EBEBEB" stroke-opacity="0.03"/>
<rect x="647.5" y="292.5" width="73" height="73" stroke="#EBEBEB" stroke-opacity="0.03"/>
<rect x="720.5" y="292.5" width="73" height="73" stroke="#EBEBEB" stroke-opacity="0.03"/>
<rect x="793.5" y="292.5" width="73" height="73" stroke="#EBEBEB" stroke-opacity="0.03"/>
<rect x="866.5" y="292.5" width="73" height="73" stroke="#EBEBEB" stroke-opacity="0.03"/>
<rect x="939.5" y="292.5" width="73" height="73" stroke="#EBEBEB" stroke-opacity="0.03"/>
<rect x="1012.5" y="292.5" width="73" height="73" stroke="#EBEBEB" stroke-opacity="0.03"/>
<rect x="1085.5" y="292.5" width="73" height="73" stroke="#EBEBEB" stroke-opacity="0.03"/>
<rect x="1158.5" y="292.5" width="73" height="73" stroke="#EBEBEB" stroke-opacity="0.03"/>
<rect x="1231.5" y="292.5" width="73" height="73" stroke="#EBEBEB" stroke-opacity="0.03"/>
<rect x="1304.5" y="292.5" width="73" height="73" stroke="#EBEBEB" stroke-opacity="0.03"/>
<rect x="1377.5" y="292.5" width="73" height="73" stroke="#EBEBEB" stroke-opacity="0.03"/>
<rect x="-9.5" y="365.5" width="73" height="73" stroke="#EBEBEB" stroke-opacity="0.03"/>
<rect x="63.5" y="365.5" width="73" height="73" stroke="#EBEBEB" stroke-opacity="0.03"/>
<rect x="136.5" y="365.5" width="73" height="73" stroke="#EBEBEB" stroke-opacity="0.03"/>
<rect x="209.5" y="365.5" width="73" height="73" stroke="#EBEBEB" stroke-opacity="0.03"/>
<rect x="282.5" y="365.5" width="73" height="73" stroke="#EBEBEB" stroke-opacity="0.03"/>
<rect x="355.5" y="365.5" width="73" height="73" stroke="#EBEBEB" stroke-opacity="0.03"/>
<rect x="428.5" y="365.5" width="73" height="73" stroke="#EBEBEB" stroke-opacity="0.03"/>
<rect x="501.5" y="365.5" width="73" height="73" stroke="#EBEBEB" stroke-opacity="0.03"/>
<rect x="574.5" y="365.5" width="73" height="73" stroke="#EBEBEB" stroke-opacity="0.03"/>
<rect x="647.5" y="365.5" width="73" height="73" stroke="#EBEBEB" stroke-opacity="0.03"/>
<rect x="720.5" y="365.5" width="73" height="73" stroke="#EBEBEB" stroke-opacity="0.03"/>
<rect x="793.5" y="365.5" width="73" height="73" stroke="#EBEBEB" stroke-opacity="0.03"/>
<rect x="866.5" y="365.5" width="73" height="73" stroke="#EBEBEB" stroke-opacity="0.03"/>
<rect x="939.5" y="365.5" width="73" height="73" stroke="#EBEBEB" stroke-opacity="0.03"/>
<rect x="1012.5" y="365.5" width="73" height="73" stroke="#EBEBEB" stroke-opacity="0.03"/>
<rect x="1085.5" y="365.5" width="73" height="73" stroke="#EBEBEB" stroke-opacity="0.03"/>
<rect x="1158.5" y="365.5" width="73" height="73" stroke="#EBEBEB" stroke-opacity="0.03"/>
<rect x="1231.5" y="365.5" width="73" height="73" stroke="#EBEBEB" stroke-opacity="0.03"/>
<rect x="1304.5" y="365.5" width="73" height="73" stroke="#EBEBEB" stroke-opacity="0.03"/>
<rect x="1377.5" y="365.5" width="73" height="73" stroke="#EBEBEB" stroke-opacity="0.03"/>
<rect x="-9.5" y="438.5" width="73" height="73" stroke="#EBEBEB" stroke-opacity="0.03"/>
<rect x="63.5" y="438.5" width="73" height="73" stroke="#EBEBEB" stroke-opacity="0.03"/>
<rect x="136" y="438" width="74" height="74" fill="#F7F7F7" fill-opacity="0.02"/>
<rect x="136.5" y="438.5" width="73" height="73" stroke="#EBEBEB" stroke-opacity="0.03"/>
<rect x="209.5" y="438.5" width="73" height="73" stroke="#EBEBEB" stroke-opacity="0.03"/>
<rect x="282.5" y="438.5" width="73" height="73" stroke="#EBEBEB" stroke-opacity="0.03"/>
<rect x="355.5" y="438.5" width="73" height="73" stroke="#EBEBEB" stroke-opacity="0.03"/>
<rect x="428.5" y="438.5" width="73" height="73" stroke="#EBEBEB" stroke-opacity="0.03"/>
<rect x="501.5" y="438.5" width="73" height="73" stroke="#EBEBEB" stroke-opacity="0.03"/>
<rect x="574" y="438" width="74" height="74" fill="#F7F7F7" fill-opacity="0.02"/>
<rect x="574.5" y="438.5" width="73" height="73" stroke="#EBEBEB" stroke-opacity="0.03"/>
<rect x="647" y="438" width="74" height="74" fill="#F7F7F7" fill-opacity="0.02"/>
<rect x="647.5" y="438.5" width="73" height="73" stroke="#EBEBEB" stroke-opacity="0.03"/>
<rect x="720.5" y="438.5" width="73" height="73" stroke="#EBEBEB" stroke-opacity="0.03"/>
<rect x="793.5" y="438.5" width="73" height="73" stroke="#EBEBEB" stroke-opacity="0.03"/>
<rect x="866.5" y="438.5" width="73" height="73" stroke="#EBEBEB" stroke-opacity="0.03"/>
<rect x="939.5" y="438.5" width="73" height="73" stroke="#EBEBEB" stroke-opacity="0.03"/>
<rect x="1012.5" y="438.5" width="73" height="73" stroke="#EBEBEB" stroke-opacity="0.03"/>
<rect x="1085.5" y="438.5" width="73" height="73" stroke="#EBEBEB" stroke-opacity="0.03"/>
<rect x="1158.5" y="438.5" width="73" height="73" stroke="#EBEBEB" stroke-opacity="0.03"/>
<rect x="1231" y="438" width="74" height="74" fill="#F7F7F7" fill-opacity="0.02"/>
<rect x="1231.5" y="438.5" width="73" height="73" stroke="#EBEBEB" stroke-opacity="0.03"/>
<rect x="1304.5" y="438.5" width="73" height="73" stroke="#EBEBEB" stroke-opacity="0.03"/>
<rect x="1377.5" y="438.5" width="73" height="73" stroke="#EBEBEB" stroke-opacity="0.03"/>
<rect x="-9.5" y="511.5" width="73" height="73" stroke="#EBEBEB" stroke-opacity="0.03"/>
<rect x="63.5" y="511.5" width="73" height="73" stroke="#EBEBEB" stroke-opacity="0.03"/>
<rect x="136.5" y="511.5" width="73" height="73" stroke="#EBEBEB" stroke-opacity="0.03"/>
<rect x="209.5" y="511.5" width="73" height="73" stroke="#EBEBEB" stroke-opacity="0.03"/>
<rect x="282.5" y="511.5" width="73" height="73" stroke="#EBEBEB" stroke-opacity="0.03"/>
<rect x="355.5" y="511.5" width="73" height="73" stroke="#EBEBEB" stroke-opacity="0.03"/>
<rect x="428.5" y="511.5" width="73" height="73" stroke="#EBEBEB" stroke-opacity="0.03"/>
<rect x="501.5" y="511.5" width="73" height="73" stroke="#EBEBEB" stroke-opacity="0.03"/>
<rect x="574.5" y="511.5" width="73" height="73" stroke="#EBEBEB" stroke-opacity="0.03"/>
<rect x="647.5" y="511.5" width="73" height="73" stroke="#EBEBEB" stroke-opacity="0.03"/>
<rect x="720.5" y="511.5" width="73" height="73" stroke="#EBEBEB" stroke-opacity="0.03"/>
<rect x="793.5" y="511.5" width="73" height="73" stroke="#EBEBEB" stroke-opacity="0.03"/>
<rect x="866.5" y="511.5" width="73" height="73" stroke="#EBEBEB" stroke-opacity="0.03"/>
<rect x="939.5" y="511.5" width="73" height="73" stroke="#EBEBEB" stroke-opacity="0.03"/>
<rect x="1012.5" y="511.5" width="73" height="73" stroke="#EBEBEB" stroke-opacity="0.03"/>
<rect x="1085.5" y="511.5" width="73" height="73" stroke="#EBEBEB" stroke-opacity="0.03"/>
<rect x="1158.5" y="511.5" width="73" height="73" stroke="#EBEBEB" stroke-opacity="0.03"/>
<rect x="1231.5" y="511.5" width="73" height="73" stroke="#EBEBEB" stroke-opacity="0.03"/>
<rect x="1304.5" y="511.5" width="73" height="73" stroke="#EBEBEB" stroke-opacity="0.03"/>
<rect x="1377.5" y="511.5" width="73" height="73" stroke="#EBEBEB" stroke-opacity="0.03"/>
<rect x="-9.5" y="584.5" width="73" height="73" stroke="#EBEBEB" stroke-opacity="0.03"/>
<rect x="63.5" y="584.5" width="73" height="73" stroke="#EBEBEB" stroke-opacity="0.03"/>
<rect x="136.5" y="584.5" width="73" height="73" stroke="#EBEBEB" stroke-opacity="0.03"/>
<rect x="209.5" y="584.5" width="73" height="73" stroke="#EBEBEB" stroke-opacity="0.03"/>
<rect x="282.5" y="584.5" width="73" height="73" stroke="#EBEBEB" stroke-opacity="0.03"/>
<rect x="355.5" y="584.5" width="73" height="73" stroke="#EBEBEB" stroke-opacity="0.03"/>
<rect x="428.5" y="584.5" width="73" height="73" stroke="#EBEBEB" stroke-opacity="0.03"/>
<rect x="501.5" y="584.5" width="73" height="73" stroke="#EBEBEB" stroke-opacity="0.03"/>
<rect x="574.5" y="584.5" width="73" height="73" stroke="#EBEBEB" stroke-opacity="0.03"/>
<rect x="647.5" y="584.5" width="73" height="73" stroke="#EBEBEB" stroke-opacity="0.03"/>
<rect x="720.5" y="584.5" width="73" height="73" stroke="#EBEBEB" stroke-opacity="0.03"/>
<rect x="793.5" y="584.5" width="73" height="73" stroke="#EBEBEB" stroke-opacity="0.03"/>
<rect x="866.5" y="584.5" width="73" height="73" stroke="#EBEBEB" stroke-opacity="0.03"/>
<rect x="939.5" y="584.5" width="73" height="73" stroke="#EBEBEB" stroke-opacity="0.03"/>
<rect x="1012.5" y="584.5" width="73" height="73" stroke="#EBEBEB" stroke-opacity="0.03"/>
<rect x="1085.5" y="584.5" width="73" height="73" stroke="#EBEBEB" stroke-opacity="0.03"/>
<rect x="1158.5" y="584.5" width="73" height="73" stroke="#EBEBEB" stroke-opacity="0.03"/>
<rect x="1231.5" y="584.5" width="73" height="73" stroke="#EBEBEB" stroke-opacity="0.03"/>
<rect x="1304.5" y="584.5" width="73" height="73" stroke="#EBEBEB" stroke-opacity="0.03"/>
<rect x="1377.5" y="584.5" width="73" height="73" stroke="#EBEBEB" stroke-opacity="0.03"/>
<rect x="-9.5" y="657.5" width="73" height="73" stroke="#EBEBEB" stroke-opacity="0.03"/>
<rect x="63.5" y="657.5" width="73" height="73" stroke="#EBEBEB" stroke-opacity="0.03"/>
<rect x="136" y="657" width="74" height="74" fill="#F7F7F7" fill-opacity="0.02"/>
<rect x="136.5" y="657.5" width="73" height="73" stroke="#EBEBEB" stroke-opacity="0.03"/>
<rect x="209.5" y="657.5" width="73" height="73" stroke="#EBEBEB" stroke-opacity="0.03"/>
<rect x="282.5" y="657.5" width="73" height="73" stroke="#EBEBEB" stroke-opacity="0.03"/>
<rect x="355.5" y="657.5" width="73" height="73" stroke="#EBEBEB" stroke-opacity="0.03"/>
<rect x="428.5" y="657.5" width="73" height="73" stroke="#EBEBEB" stroke-opacity="0.03"/>
<rect x="501.5" y="657.5" width="73" height="73" stroke="#EBEBEB" stroke-opacity="0.03"/>
<rect x="574.5" y="657.5" width="73" height="73" stroke="#EBEBEB" stroke-opacity="0.03"/>
<rect x="647.5" y="657.5" width="73" height="73" stroke="#EBEBEB" stroke-opacity="0.03"/>
<rect x="720.5" y="657.5" width="73" height="73" stroke="#EBEBEB" stroke-opacity="0.03"/>
<rect x="793.5" y="657.5" width="73" height="73" stroke="#EBEBEB" stroke-opacity="0.03"/>
<rect x="866.5" y="657.5" width="73" height="73" stroke="#EBEBEB" stroke-opacity="0.03"/>
<rect x="939.5" y="657.5" width="73" height="73" stroke="#EBEBEB" stroke-opacity="0.03"/>
<rect x="1012.5" y="657.5" width="73" height="73" stroke="#EBEBEB" stroke-opacity="0.03"/>
<rect x="1085.5" y="657.5" width="73" height="73" stroke="#EBEBEB" stroke-opacity="0.03"/>
<rect x="1158.5" y="657.5" width="73" height="73" stroke="#EBEBEB" stroke-opacity="0.03"/>
<rect x="1231" y="657" width="74" height="74" fill="#F7F7F7" fill-opacity="0.02"/>
<rect x="1231.5" y="657.5" width="73" height="73" stroke="#EBEBEB" stroke-opacity="0.03"/>
<rect x="1304.5" y="657.5" width="73" height="73" stroke="#EBEBEB" stroke-opacity="0.03"/>
<rect x="1377.5" y="657.5" width="73" height="73" stroke="#EBEBEB" stroke-opacity="0.03"/>
<rect x="-9.5" y="730.5" width="73" height="73" stroke="#EBEBEB" stroke-opacity="0.03"/>
<rect x="63.5" y="730.5" width="73" height="73" stroke="#EBEBEB" stroke-opacity="0.03"/>
<rect x="136" y="730" width="74" height="74" fill="#F7F7F7" fill-opacity="0.02"/>
<rect x="136.5" y="730.5" width="73" height="73" stroke="#EBEBEB" stroke-opacity="0.03"/>
<rect x="209" y="730" width="74" height="74" fill="#F7F7F7" fill-opacity="0.02"/>
<rect x="209.5" y="730.5" width="73" height="73" stroke="#EBEBEB" stroke-opacity="0.03"/>
<rect x="282.5" y="730.5" width="73" height="73" stroke="#EBEBEB" stroke-opacity="0.03"/>
<rect x="355.5" y="730.5" width="73" height="73" stroke="#EBEBEB" stroke-opacity="0.03"/>
<rect x="428.5" y="730.5" width="73" height="73" stroke="#EBEBEB" stroke-opacity="0.03"/>
<rect x="501.5" y="730.5" width="73" height="73" stroke="#EBEBEB" stroke-opacity="0.03"/>
<rect x="574.5" y="730.5" width="73" height="73" stroke="#EBEBEB" stroke-opacity="0.03"/>
<rect x="647" y="730" width="74" height="74" fill="#F2F2F2" fill-opacity="0.02"/>
<rect x="647.5" y="730.5" width="73" height="73" stroke="#EBEBEB" stroke-opacity="0.03"/>
<rect x="720.5" y="730.5" width="73" height="73" stroke="#EBEBEB" stroke-opacity="0.03"/>
<rect x="793" y="730" width="74" height="74" fill="#F2F2F2" fill-opacity="0.02"/>
<rect x="793.5" y="730.5" width="73" height="73" stroke="#EBEBEB" stroke-opacity="0.03"/>
<rect x="866.5" y="730.5" width="73" height="73" stroke="#EBEBEB" stroke-opacity="0.03"/>
<rect x="939" y="730" width="74" height="74" fill="#F2F2F2" fill-opacity="0.02"/>
<rect x="939.5" y="730.5" width="73" height="73" stroke="#EBEBEB" stroke-opacity="0.03"/>
<rect x="1012.5" y="730.5" width="73" height="73" stroke="#EBEBEB" stroke-opacity="0.03"/>
<rect x="1085.5" y="730.5" width="73" height="73" stroke="#EBEBEB" stroke-opacity="0.03"/>
<rect x="1158" y="730" width="74" height="74" fill="#F7F7F7" fill-opacity="0.02"/>
<rect x="1158.5" y="730.5" width="73" height="73" stroke="#EBEBEB" stroke-opacity="0.03"/>
<rect x="1231" y="730" width="74" height="74" fill="#F7F7F7" fill-opacity="0.02"/>
<rect x="1231.5" y="730.5" width="73" height="73" stroke="#EBEBEB" stroke-opacity="0.03"/>
<rect x="1304.5" y="730.5" width="73" height="73" stroke="#EBEBEB" stroke-opacity="0.03"/>
<rect x="1377.5" y="730.5" width="73" height="73" stroke="#EBEBEB" stroke-opacity="0.03"/>
<rect x="-9.5" y="803.5" width="73" height="73" stroke="#EBEBEB" stroke-opacity="0.03"/>
<rect x="63.5" y="803.5" width="73" height="73" stroke="#EBEBEB" stroke-opacity="0.03"/>
<rect x="136.5" y="803.5" width="73" height="73" stroke="#EBEBEB" stroke-opacity="0.03"/>
<rect x="209" y="803" width="74" height="74" fill="#F7F7F7" fill-opacity="0.02"/>
<rect x="209.5" y="803.5" width="73" height="73" stroke="#EBEBEB" stroke-opacity="0.03"/>
<rect x="282.5" y="803.5" width="73" height="73" stroke="#EBEBEB" stroke-opacity="0.03"/>
<rect x="355.5" y="803.5" width="73" height="73" stroke="#EBEBEB" stroke-opacity="0.03"/>
<rect x="428.5" y="803.5" width="73" height="73" stroke="#EBEBEB" stroke-opacity="0.03"/>
<rect x="501.5" y="803.5" width="73" height="73" stroke="#EBEBEB" stroke-opacity="0.03"/>
<rect x="574.5" y="803.5" width="73" height="73" stroke="#EBEBEB" stroke-opacity="0.03"/>
<rect x="647.5" y="803.5" width="73" height="73" stroke="#EBEBEB" stroke-opacity="0.03"/>
<rect x="720.5" y="803.5" width="73" height="73" stroke="#EBEBEB" stroke-opacity="0.03"/>
<rect x="793.5" y="803.5" width="73" height="73" stroke="#EBEBEB" stroke-opacity="0.03"/>
<rect x="866.5" y="803.5" width="73" height="73" stroke="#EBEBEB" stroke-opacity="0.03"/>
<rect x="939.5" y="803.5" width="73" height="73" stroke="#EBEBEB" stroke-opacity="0.03"/>
<rect x="1012.5" y="803.5" width="73" height="73" stroke="#EBEBEB" stroke-opacity="0.03"/>
<rect x="1085.5" y="803.5" width="73" height="73" stroke="#EBEBEB" stroke-opacity="0.03"/>
<rect x="1158" y="803" width="74" height="74" fill="#F7F7F7" fill-opacity="0.02"/>
<rect x="1158.5" y="803.5" width="73" height="73" stroke="#EBEBEB" stroke-opacity="0.03"/>
<rect x="1231.5" y="803.5" width="73" height="73" stroke="#EBEBEB" stroke-opacity="0.03"/>
<rect x="1304.5" y="803.5" width="73" height="73" stroke="#EBEBEB" stroke-opacity="0.03"/>
<rect x="1377.5" y="803.5" width="73" height="73" stroke="#EBEBEB" stroke-opacity="0.03"/>
<rect x="-9.5" y="876.5" width="73" height="73" stroke="#EBEBEB" stroke-opacity="0.03"/>
<rect x="63.5" y="876.5" width="73" height="73" stroke="#EBEBEB" stroke-opacity="0.03"/>
<rect x="136.5" y="876.5" width="73" height="73" stroke="#EBEBEB" stroke-opacity="0.03"/>
<rect x="209.5" y="876.5" width="73" height="73" stroke="#EBEBEB" stroke-opacity="0.03"/>
<rect x="282.5" y="876.5" width="73" height="73" stroke="#EBEBEB" stroke-opacity="0.03"/>
<rect x="355.5" y="876.5" width="73" height="73" stroke="#EBEBEB" stroke-opacity="0.03"/>
<rect x="428.5" y="876.5" width="73" height="73" stroke="#EBEBEB" stroke-opacity="0.03"/>
<rect x="501.5" y="876.5" width="73" height="73" stroke="#EBEBEB" stroke-opacity="0.03"/>
<rect x="574.5" y="876.5" width="73" height="73" stroke="#EBEBEB" stroke-opacity="0.03"/>
<rect x="647.5" y="876.5" width="73" height="73" stroke="#EBEBEB" stroke-opacity="0.03"/>
<rect x="720.5" y="876.5" width="73" height="73" stroke="#EBEBEB" stroke-opacity="0.03"/>
<rect x="793.5" y="876.5" width="73" height="73" stroke="#EBEBEB" stroke-opacity="0.03"/>
<rect x="866.5" y="876.5" width="73" height="73" stroke="#EBEBEB" stroke-opacity="0.03"/>
<rect x="939.5" y="876.5" width="73" height="73" stroke="#EBEBEB" stroke-opacity="0.03"/>
<rect x="1012.5" y="876.5" width="73" height="73" stroke="#EBEBEB" stroke-opacity="0.03"/>
<rect x="1085.5" y="876.5" width="73" height="73" stroke="#EBEBEB" stroke-opacity="0.03"/>
<rect x="1158.5" y="876.5" width="73" height="73" stroke="#EBEBEB" stroke-opacity="0.03"/>
<rect x="1231.5" y="876.5" width="73" height="73" stroke="#EBEBEB" stroke-opacity="0.03"/>
<rect x="1304.5" y="876.5" width="73" height="73" stroke="#EBEBEB" stroke-opacity="0.03"/>
<rect x="1377.5" y="876.5" width="73" height="73" stroke="#EBEBEB" stroke-opacity="0.03"/>
</svg>
